<svg width="960" height="540" viewBox="0 0 960 540" fill="none" xmlns="http://www.w3.org/2000/svg">
  <defs>
    <linearGradient id="bg" x1="0" y1="0" x2="1" y2="1">
      <stop offset="0%" stop-color="#fef3c7" />
      <stop offset="50%" stop-color="#dbeafe" />
      <stop offset="100%" stop-color="#ecfeff" />
    </linearGradient>
  </defs>
  <rect width="960" height="540" rx="36" fill="url(#bg)" />
  <rect x="64" y="72" width="832" height="396" rx="28" fill="#ffffff" opacity="0.8" />
  <g>
    <rect x="120" y="150" width="220" height="240" rx="20" fill="#f97316" opacity="0.2" />
    <rect x="150" y="190" width="160" height="140" rx="16" fill="#fb923c" opacity="0.25" />
  </g>
  <g>
    <circle cx="480" cy="230" r="60" fill="#3b82f6" opacity="0.25" />
    <rect x="430" y="290" width="100" height="120" rx="22" fill="#3b82f6" opacity="0.25" />
  </g>
  <g>
    <rect x="640" y="180" width="200" height="200" rx="24" fill="#22c55e" opacity="0.2" />
    <rect x="680" y="220" width="120" height="120" rx="18" fill="#4ade80" opacity="0.25" />
  </g>
  <g fill="#0f172a" opacity="0.6">
    <rect x="130" y="370" width="120" height="18" rx="9" />
    <rect x="270" y="370" width="120" height="18" rx="9" />
    <rect x="410" y="370" width="120" height="18" rx="9" />
    <rect x="550" y="370" width="120" height="18" rx="9" />
    <rect x="690" y="370" width="120" height="18" rx="9" />
  </g>
  <text x="480" y="115" text-anchor="middle" font-family="Manrope, Arial, sans-serif" font-size="22" fill="#0f172a" opacity="0.65">
    Dokumentasi Tim Bafain
  </text>
</svg>
