<svg width="720" height="520" viewBox="0 0 720 520" fill="none" xmlns="http://www.w3.org/2000/svg">
  <rect width="720" height="520" rx="32" fill="#ffffff" />
  <g stroke="#e2e8f0" stroke-width="2">
    <rect x="60" y="80" width="180" height="120" rx="16" />
    <rect x="300" y="60" width="160" height="100" rx="16" />
    <rect x="500" y="90" width="160" height="120" rx="16" />
    <rect x="140" y="260" width="200" height="140" rx="18" />
    <rect x="400" y="270" width="220" height="130" rx="18" />
  </g>
  <g stroke="#3b82f6" stroke-width="3" stroke-linecap="round">
    <path d="M240 140 L300 110" />
    <path d="M460 110 L500 150" />
    <path d="M180 200 L220 260" />
    <path d="M420 220 L400 270" />
    <path d="M340 330 L400 330" />
  </g>
  <g fill="#f97316">
    <circle cx="150" cy="140" r="12" />
    <circle cx="380" cy="110" r="12" />
    <circle cx="580" cy="150" r="12" />
    <circle cx="240" cy="300" r="12" />
    <circle cx="510" cy="320" r="12" />
  </g>
  <g fill="#0f172a" opacity="0.7" font-family="Manrope, Arial, sans-serif" font-size="16">
    <text x="85" y="135">Panel Surya</text>
    <text x="325" y="105">Kontrol Udara</text>
    <text x="525" y="145">Pemanas Surya</text>
    <text x="170" y="320">Ruang Pengering</text>
    <text x="430" y="335">Monitoring IoT</text>
  </g>
  <g fill="#64748b" font-family="Manrope, Arial, sans-serif" font-size="12">
    <text x="85" y="160">Energi bersih</text>
    <text x="325" y="130">Suhu stabil</text>
    <text x="525" y="170">Efisiensi tinggi</text>
    <text x="170" y="345">Kapasitas besar</text>
    <text x="430" y="360">Laporan real-time</text>
  </g>
</svg>
